<svg overflow="hidden" viewBox="0, 0, 256, 167.36" id="e4a469cf-c862-42cc-a88a-adb946f14568" xmlns="http://www.w3.org/2000/svg" xmlns:xlink="http://www.w3.org/1999/xlink" xmlns:xml="http://www.w3.org/XML/1998/namespace" version="1.1"><defs /><path d="M216.31 39.92 L216.31 127.19 L40.21 127.19 L40.21 39.92 L216.31 39.92 z" style="fill:#BED3C4;" /><path d="M245.37 127.2 L217.46 127.2 L217.46 39.35 C217.46 39.03 217.2 38.78 216.89 38.78 L40.21 38.78 L40.21 10.86 C40.21 10.54 39.95 10.29 39.64 10.29 C39.33 10.29 39.07 10.55 39.07 10.86 L39.07 38.77 L11.15 38.77 C10.83 38.77 10.58 39.03 10.58 39.34 C10.58 39.65 10.84 39.91 11.15 39.91 L39.06 39.91 L39.06 127.77 C39.06 128.09 39.32 128.34 39.63 128.34 L216.31 128.34 L216.31 156.25 C216.31 156.57 216.57 156.82 216.88 156.82 C217.19 156.82 217.45 156.56 217.45 156.25 L217.45 128.34 L245.36 128.34 C245.68 128.34 245.93 128.08 245.93 127.77 C245.93 127.46 245.67 127.2 245.36 127.2 z M40.21 127.2 L40.21 39.92 L216.31 39.92 L216.31 127.2 L40.21 127.2 z" /></svg>